<?xml version="1.0" standalone="no"?>
<!DOCTYPE svg PUBLIC "-//W3C//DTD SVG 20010904//EN"
 "http://www.w3.org/TR/2001/REC-SVG-20010904/DTD/svg10.dtd">
<svg version="1.0" xmlns="http://www.w3.org/2000/svg"
 width="48.000000pt" height="48.000000pt" viewBox="0 0 48.000000 48.000000"
 preserveAspectRatio="xMidYMid meet">

<g transform="translate(0.000000,48.000000) scale(0.100000,-0.100000)"
fill="#000000" stroke="none">
<path d="M213 451 c-156 -26 -178 -32 -178 -51 0 -5 -8 -15 -17 -22 -16 -12
-15 -23 17 -168 19 -85 39 -165 45 -177 12 -29 24 -29 215 -2 108 15 155 26
168 39 18 17 18 22 -18 181 -41 183 -53 229 -63 228 -4 -1 -80 -13 -169 -28z
m214 -168 c34 -148 38 -181 28 -198 -10 -16 -38 -23 -161 -42 -186 -28 -174
-28 -174 3 0 15 -16 100 -36 191 -20 90 -34 166 -31 170 8 7 258 50 303 52
l30 1 41 -177z m-382 65 c28 -121 65 -295 65 -305 0 -19 -17 -16 -24 4 -9 23
-66 290 -66 308 0 23 19 17 25 -7z"/>
<path d="M320 415 c0 -9 7 -18 15 -21 8 -4 15 -10 15 -16 0 -5 -4 -6 -10 -3
-5 3 -10 1 -10 -5 0 -18 34 -7 38 12 2 10 -6 19 -20 24 -22 7 -22 7 -3 15 19
7 19 8 -2 8 -14 1 -23 -5 -23 -14z"/>
<path d="M252 404 c-6 -10 -12 -13 -12 -6 0 6 -5 12 -10 12 -6 0 -3 -14 6 -31
12 -24 18 -28 24 -19 7 11 11 11 24 1 14 -12 16 -9 15 25 0 29 -2 34 -8 19 -7
-18 -8 -18 -18 -1 -10 18 -11 18 -21 0z"/>
<path d="M170 391 c0 -34 12 -51 34 -50 16 1 17 2 4 6 -21 5 -24 23 -5 23 8 0
7 4 -3 10 -13 9 -13 11 0 20 12 8 11 10 -7 10 -16 0 -23 -6 -23 -19z"/>
<path d="M100 374 c0 -16 5 -36 10 -44 8 -12 10 -10 10 9 0 23 1 24 20 6 19
-18 20 -17 20 6 0 13 -5 31 -10 39 -8 13 -10 12 -10 -4 0 -18 -1 -18 -20 -1
-20 18 -20 17 -20 -11z"/>
<path d="M233 326 c-67 -12 -125 -25 -129 -29 -4 -4 6 -5 22 -2 16 3 80 14
143 25 63 11 117 22 119 25 8 8 -22 4 -155 -19z"/>
<path d="M331 309 c-24 -5 -47 -11 -50 -15 -9 -9 93 7 104 17 10 10 8 10 -54
-2z"/>
<path d="M185 288 c-33 -5 -64 -13 -69 -18 -6 -6 -4 -31 3 -65 12 -53 14 -56
39 -51 15 3 48 8 75 12 34 5 47 11 47 23 -1 27 -18 93 -27 100 -4 4 -35 3 -68
-1z m73 -55 c6 -26 10 -49 9 -50 -1 -1 -30 -5 -63 -8 l-61 -7 -11 43 c-6 24
-9 45 -7 48 6 5 72 18 102 20 18 1 23 -7 31 -46z"/>
<path d="M337 280 c-54 -10 -60 -22 -7 -14 46 7 92 24 60 23 -8 -1 -32 -5 -53
-9z"/>
<path d="M343 251 c-24 -4 -46 -11 -50 -15 -9 -9 77 4 97 15 17 9 13 9 -47 0z"/>
<path d="M350 223 c-19 -3 -39 -8 -44 -13 -10 -10 73 -1 94 11 17 9 16 9 -50
2z"/>
<path d="M348 193 c-21 -2 -38 -8 -38 -12 0 -8 98 4 108 14 5 5 -2 5 -70 -2z"/>
<path d="M358 163 c-21 -2 -38 -8 -38 -12 0 -8 98 4 108 14 5 5 -2 5 -70 -2z"/>
<path d="M195 134 l-60 -13 59 5 c60 6 124 23 81 22 -11 0 -47 -6 -80 -14z"/>
<path d="M358 133 c-21 -2 -38 -8 -38 -13 0 -9 62 -2 95 11 l20 8 -20 -1 c-11
-1 -37 -3 -57 -5z"/>
<path d="M207 110 c-27 -5 -52 -12 -55 -15 -9 -9 96 5 123 16 l20 8 -20 -1
c-11 0 -42 -4 -68 -8z"/>
<path d="M368 103 c-21 -2 -38 -8 -38 -12 0 -8 100 6 109 15 4 4 -5 4 -71 -3z"/>
<path d="M207 80 c-27 -5 -52 -11 -55 -15 -8 -7 92 5 128 16 l25 7 -25 0 c-14
0 -47 -4 -73 -8z"/>
</g>
</svg>
